# xmcd CD database file
#
# Track frame offsets:
#	150
#	4084
#	19005
#	34266
#	51784
#	68227
#	81772
#	97640
#	115070
#	130008
#	145982
#
# Disc length: 2180 seconds
#
# Revision: 2
# Processed by: cddbd v1.5.2PL0 Copyright (c) Steve Scherf et al.
# Submitted via: jetAudio 7
#
DISCID=8308820b
DTITLE=BIGBANG - BIGBANG
DYEAR=2009
DGENRE=JPop
TTITLE0=(
TTITLE1=4
TTITLE2=7
TTITLE3=)
TTITLE4=3
TTITLE5=0
TTITLE6=5
TTITLE7=6
TTITLE8=0
TTITLE9=8
TTITLE10=9
EXTD=
EXTT0=
EXTT1=
EXTT2=
EXTT3=
EXTT4=
EXTT5=
EXTT6=
EXTT7=
EXTT8=
EXTT9=
EXTT10=
PLAYORDER=
